# xmcd
#
# Track frame offsets:
#	150
#	18329
#	34737
#	55354
#	73572
#	92406
#	112022
#	132328
#	148885
#	165680
#	183102
#	198108
#	214218
#	234469
#	255868
#	275694
#	293853
#	310524
#	327067
#
# Disc length: 4568 seconds
#
# Revision: 0
# Processed by: cddbd v1.5.1PL2 Copyright (c) Steve Scherf et al.
# Submitted via: dBpowerAMP V4.0
#
DISCID=0e11d613
DTITLE=Stefanie Sun - A Perfect Day
DYEAR=2006
DGENRE=Pop
TTITLE0=Wan Mei Te Yi Thien
TTITLE1=Yen Lei Cen Si
TTITLE2=Khe Sin Jen
TTITLE3=Liu Lei Ti Thu
TTITLE4=Thi Yi Thien
TTITLE5=Honey Honey
TTITLE6=Sin Yen
TTITLE7=Lin Yi Chang Lien
TTITLE8=Mung Pu Lek
TTITLE9=Ming Thien Ching Thien
TTITLE10=Ching Le Sie
TTITLE11=Te Ku La Puo
TTITLE12=Chai Hong Yen Lei
TTITLE13=Ai Te hau Ma Phai
TTITLE14=Cie Mei Pan
TTITLE15=Kuang Yi
TTITLE16=You Thua Ce Sou
TTITLE17=Hau Di Sang Yen
TTITLE18=Khuai Le Ken Cung
EXTD=
EXTT0=
EXTT1=
EXTT2=
EXTT3=
EXTT4=
EXTT5=
EXTT6=
EXTT7=
EXTT8=
EXTT9=
EXTT10=
EXTT11=
EXTT12=
EXTT13=
EXTT14=
EXTT15=
EXTT16=
EXTT17=
EXTT18=
PLAYORDER=
